<svg width="36" height="36" viewBox="0 0 36 36" fill="none" xmlns="http://www.w3.org/2000/svg">
<path d="M-7.86805e-07 18L9 2.41154L27 2.41154L36 18L27 33.5885L9 33.5885L-7.86805e-07 18Z" fill="url(#paint0_linear_154_1668)"/>
<path d="M17.9995 22.1193C17.3858 22.1193 16.8404 22.0142 16.3631 21.804C15.8887 21.5937 15.5137 21.3011 15.2381 20.9261C14.9625 20.5511 14.8162 20.1179 14.7992 19.6264H16.4015C16.4157 19.8622 16.4938 20.0682 16.6358 20.2443C16.7779 20.4176 16.9668 20.5526 17.2026 20.6491C17.4384 20.7457 17.7026 20.794 17.9952 20.794C18.3077 20.794 18.5847 20.7401 18.8262 20.6321C19.0676 20.5213 19.2566 20.3679 19.3929 20.1719C19.5293 19.9759 19.5961 19.75 19.5932 19.4943C19.5961 19.2301 19.5279 18.9972 19.3887 18.7955C19.2495 18.5937 19.0478 18.4361 18.7836 18.3224C18.5222 18.2088 18.2069 18.152 17.8375 18.152H17.0662V16.9332H17.8375C18.1415 16.9332 18.4071 16.8807 18.6344 16.7756C18.8645 16.6705 19.0449 16.5227 19.1756 16.3324C19.3063 16.1392 19.3702 15.9162 19.3674 15.6634C19.3702 15.4162 19.3148 15.2017 19.2012 15.0199C19.0904 14.8352 18.9327 14.6918 18.7282 14.5895C18.5265 14.4872 18.2892 14.4361 18.0165 14.4361C17.7495 14.4361 17.5023 14.4844 17.275 14.581C17.0478 14.6776 16.8645 14.8153 16.7253 14.9943C16.5861 15.1705 16.5123 15.3807 16.5037 15.625H14.9824C14.9938 15.1364 15.1344 14.7074 15.4043 14.3381C15.677 13.9659 16.0407 13.6761 16.4952 13.4688C16.9498 13.2585 17.4597 13.1534 18.025 13.1534C18.6074 13.1534 19.1131 13.2628 19.5421 13.4815C19.9739 13.6974 20.3077 13.9886 20.5435 14.3551C20.7793 14.7216 20.8972 15.1264 20.8972 15.5696C20.9 16.0611 20.7551 16.473 20.4625 16.8054C20.1728 17.1378 19.7921 17.3551 19.3205 17.4574V17.5256C19.9341 17.6108 20.4043 17.8381 20.731 18.2074C21.0605 18.5739 21.2239 19.0298 21.2211 19.5753C21.2211 20.0639 21.0819 20.5014 20.8034 20.8878C20.5279 21.2713 20.1472 21.5724 19.6614 21.7912C19.1784 22.0099 18.6245 22.1193 17.9995 22.1193Z" fill="#FAFAFA"/>
<defs>
<linearGradient id="paint0_linear_154_1668" x1="18" y1="-7.86805e-07" x2="18" y2="36" gradientUnits="userSpaceOnUse">
<stop stop-color="#F08409"/>
<stop offset="0.5" stop-color="#F6B060"/>
<stop offset="1" stop-color="#F08409"/>
</linearGradient>
</defs>
</svg>
