<svg width="36" height="36" viewBox="0 0 36 36" fill="none" xmlns="http://www.w3.org/2000/svg">
<path d="M-7.86805e-07 18L9 2.41154L27 2.41154L36 18L27 33.5885L9 33.5885L-7.86805e-07 18Z" fill="url(#paint0_linear_154_1662)"/>
<path d="M15.049 22V20.858L18.0788 17.8878C18.3686 17.5952 18.6101 17.3352 18.8033 17.108C18.9964 16.8807 19.1413 16.6605 19.2379 16.4474C19.3345 16.2344 19.3828 16.0071 19.3828 15.7656C19.3828 15.4901 19.3203 15.2543 19.1953 15.0582C19.0703 14.8594 18.8984 14.706 18.6797 14.598C18.4609 14.4901 18.2124 14.4361 17.9339 14.4361C17.647 14.4361 17.3956 14.4957 17.1797 14.6151C16.9638 14.7315 16.7962 14.8977 16.6768 15.1136C16.5604 15.3295 16.5021 15.5866 16.5021 15.8849H14.9979C14.9979 15.331 15.1243 14.8494 15.3771 14.4403C15.63 14.0312 15.978 13.7145 16.4212 13.4901C16.8672 13.2656 17.3786 13.1534 17.9553 13.1534C18.5405 13.1534 19.0547 13.2628 19.4979 13.4815C19.9411 13.7003 20.2848 14 20.5291 14.3807C20.7763 14.7614 20.8999 15.196 20.8999 15.6847C20.8999 16.0114 20.8374 16.3324 20.7124 16.6477C20.5874 16.9631 20.3672 17.3125 20.0518 17.696C19.7393 18.0795 19.3004 18.544 18.7351 19.0895L17.2308 20.6193V20.679H21.032V22H15.049Z" fill="#FAFAFA"/>
<defs>
<linearGradient id="paint0_linear_154_1662" x1="18" y1="-7.86805e-07" x2="18" y2="36" gradientUnits="userSpaceOnUse">
<stop stop-color="#E2E2E2"/>
<stop offset="0.495192" stop-color="#C4C4C4"/>
<stop offset="1" stop-color="#E2E2E2"/>
</linearGradient>
</defs>
</svg>
