<svg width="24" height="24" viewBox="0 0 24 24" fill="none" xmlns="http://www.w3.org/2000/svg">
<path fill-rule="evenodd" clip-rule="evenodd" d="M14.4487 18.7457C14.9796 18.6925 15.3384 19.256 15.0875 19.7123C14.9108 20.0337 14.6617 20.3143 14.3633 20.5441C14.059 20.7785 13.706 20.9584 13.3273 21.0791C12.9484 21.2001 12.546 21.2612 12.1422 21.2612C11.7384 21.2612 11.3361 21.2001 10.9572 21.0791C10.5785 20.9584 10.2255 20.7785 9.92118 20.5441C9.62276 20.3143 9.37365 20.0337 9.19694 19.7123C8.94614 19.256 9.30486 18.6925 9.8358 18.7457C10.0014 18.7623 11.2974 18.889 12.1422 18.889C12.9871 18.889 14.2831 18.7623 14.4487 18.7457Z" fill="white"/>
<path fill-rule="evenodd" clip-rule="evenodd" d="M9.04474 3.46137C10.995 2.52846 13.2803 2.49673 15.2578 3.37508L15.4345 3.45358C17.5066 4.37396 18.8332 6.36805 18.8332 8.5622V9.65038C18.8332 10.5251 19.0315 11.3893 19.4144 12.1827L19.6429 12.6566C20.6929 14.833 19.3256 17.377 16.8713 17.813L16.733 17.8376C13.6968 18.377 10.5834 18.377 7.54726 17.8376C5.06 17.3957 3.74413 14.7506 4.94773 12.6121L5.14328 12.2647C5.62601 11.407 5.87879 10.4472 5.87879 9.47207V8.37506C5.87879 6.29243 7.10505 4.38922 9.04474 3.46137Z" fill="white"/>
</svg>
