<svg width="20" height="20" viewBox="0 0 20 20" fill="none" xmlns="http://www.w3.org/2000/svg">
<path fill-rule="evenodd" clip-rule="evenodd" d="M16.0056 5.17245C16.1574 5.01528 16.2414 4.80478 16.2395 4.58629C16.2376 4.36779 16.1499 4.15878 15.9954 4.00427C15.8409 3.84976 15.6319 3.76212 15.4134 3.76022C15.1949 3.75833 14.9844 3.84232 14.8272 3.99412L9.99974 8.82162L5.17224 3.99412C5.01507 3.84232 4.80457 3.75833 4.58607 3.76022C4.36758 3.76212 4.15857 3.84976 4.00406 4.00427C3.84955 4.15878 3.76191 4.36779 3.76001 4.58629C3.75811 4.80478 3.84211 5.01528 3.99391 5.17245L8.82141 9.99995L3.99391 14.8275C3.91432 14.9043 3.85083 14.9963 3.80716 15.0979C3.76348 15.1996 3.74049 15.309 3.73953 15.4196C3.73857 15.5303 3.75966 15.64 3.80156 15.7424C3.84346 15.8448 3.90534 15.9379 3.98358 16.0161C4.06182 16.0944 4.15487 16.1562 4.25728 16.1981C4.35969 16.24 4.46943 16.2611 4.58008 16.2602C4.69073 16.2592 4.80008 16.2362 4.90175 16.1925C5.00342 16.1489 5.09537 16.0854 5.17224 16.0058L9.99974 11.1783L14.8272 16.0058C14.9844 16.1576 15.1949 16.2416 15.4134 16.2397C15.6319 16.2378 15.8409 16.1501 15.9954 15.9956C16.1499 15.8411 16.2376 15.6321 16.2395 15.4136C16.2414 15.1951 16.1574 14.9846 16.0056 14.8275L11.1781 9.99995L16.0056 5.17245Z" fill="#8493B2"/>
</svg>
