<svg width="42" height="42" viewBox="0 0 42 42" fill="none" xmlns="http://www.w3.org/2000/svg">
<path d="M34.4526 24.6629L34.7736 21.6797C34.9447 20.0881 35.0577 19.037 34.969 18.3748L35 18.375C36.4497 18.375 37.625 17.1998 37.625 15.75C37.625 14.3002 36.4497 13.125 35 13.125C33.5503 13.125 32.375 14.3002 32.375 15.75C32.375 16.4057 32.6154 17.0052 33.0129 17.4652C32.4422 17.8175 31.6964 18.5605 30.5734 19.6789C29.7084 20.5406 29.2758 20.9715 28.7933 21.0383C28.5259 21.0753 28.2536 21.0373 28.0066 20.9286C27.5611 20.7323 27.2639 20.1997 26.6698 19.1345L23.5384 13.5195C23.1717 12.8623 22.865 12.3122 22.5885 11.8696C23.723 11.2908 24.5 10.1111 24.5 8.75C24.5 6.817 22.9331 5.25 21 5.25C19.0669 5.25 17.5 6.817 17.5 8.75C17.5 10.1111 18.277 11.2908 19.4115 11.8696C19.135 12.3123 18.8283 12.8622 18.4616 13.5195L15.3301 19.1345C14.736 20.1997 14.4389 20.7323 13.9934 20.9286C13.7465 21.0373 13.4741 21.0753 13.2067 21.0383C12.7242 20.9715 12.2917 20.5406 11.4266 19.6789C10.3038 18.5605 9.55773 17.8174 8.98718 17.4652C9.38462 17.0052 9.625 16.4057 9.625 15.75C9.625 14.3002 8.44975 13.125 7 13.125C5.55025 13.125 4.375 14.3002 4.375 15.75C4.375 17.1998 5.55025 18.375 7 18.375L7.03099 18.3748C6.94229 19.037 7.05533 20.0881 7.22654 21.6797L7.5474 24.6629C7.72551 26.3188 7.87362 27.8943 8.05502 29.3125H33.9449C34.1264 27.8943 34.2745 26.3188 34.4526 24.6629Z" fill="#212121"/>
<path d="M19.0963 36.75H22.904C27.867 36.75 30.3483 36.75 32.004 35.2681C32.7267 34.6211 33.1842 33.4551 33.5144 31.9375H8.48584C8.81605 33.4551 9.27364 34.6211 9.9963 35.2681C11.652 36.75 14.1334 36.75 19.0963 36.75Z" fill="#212121"/>
</svg>
