<svg width="24" height="24" viewBox="0 0 24 24" fill="none" xmlns="http://www.w3.org/2000/svg">
<path d="M1.5 8.7C1.5 6.17977 1.5 4.91965 1.99047 3.95705C2.4219 3.11031 3.11031 2.4219 3.95705 1.99047C4.91965 1.5 6.17977 1.5 8.7 1.5H15.3C17.8202 1.5 19.0804 1.5 20.0429 1.99047C20.8897 2.4219 21.5781 3.11031 22.0095 3.95705C22.5 4.91965 22.5 6.17977 22.5 8.7V15.3C22.5 17.8202 22.5 19.0804 22.0095 20.0429C21.5781 20.8897 20.8897 21.5781 20.0429 22.0095C19.0804 22.5 17.8202 22.5 15.3 22.5H8.7C6.17977 22.5 4.91965 22.5 3.95705 22.0095C3.11031 21.5781 2.4219 20.8897 1.99047 20.0429C1.5 19.0804 1.5 17.8202 1.5 15.3V8.7Z" fill="white"/>
<path d="M17.7271 7.00499C16.659 6.53549 15.5169 6.19427 14.323 6C14.1764 6.24907 14.0051 6.58406 13.8869 6.85056C12.6177 6.67123 11.3602 6.67123 10.1143 6.85056C9.99623 6.58406 9.82095 6.24907 9.67305 6C8.47778 6.19427 7.33445 6.53674 6.26639 7.00747C4.11207 10.066 3.52807 13.0486 3.82007 15.9888C5.24892 16.9913 6.63365 17.6003 7.995 17.9987C8.33115 17.5642 8.63093 17.1022 8.88923 16.6152C8.3973 16.4396 7.92623 16.2229 7.4811 15.9713C7.59923 15.8892 7.71473 15.8033 7.82633 15.7148C10.5413 16.9079 13.4911 16.9079 16.1737 15.7148C16.2866 15.8033 16.4021 15.8892 16.5188 15.9713C16.0724 16.2241 15.6 16.4408 15.1082 16.6165C15.3664 17.1022 15.6649 17.5654 16.0023 18C17.365 17.6015 18.751 16.9925 20.1799 15.9888C20.5225 12.5803 19.5946 9.62513 17.7271 7.00499ZM9.25905 14.1806C8.44403 14.1806 7.7757 13.4657 7.7757 12.5953C7.7757 11.7248 8.42978 11.0087 9.25905 11.0087C10.0883 11.0087 10.7567 11.7235 10.7424 12.5953C10.7438 13.4657 10.0883 14.1806 9.25905 14.1806ZM14.7409 14.1806C13.9259 14.1806 13.2575 13.4657 13.2575 12.5953C13.2575 11.7248 13.9116 11.0087 14.7409 11.0087C15.5702 11.0087 16.2386 11.7235 16.2242 12.5953C16.2242 13.4657 15.5702 14.1806 14.7409 14.1806Z" fill="#5865F2"/>
</svg>
