<svg width="20" height="20" viewBox="0 0 20 20" fill="none" xmlns="http://www.w3.org/2000/svg">
<path fill-rule="evenodd" clip-rule="evenodd" d="M11.6665 4.16667C11.2063 4.16667 10.8332 3.79357 10.8332 3.33333C10.8332 2.8731 11.2063 2.5 11.6665 2.5H16.6665C17.1268 2.5 17.4998 2.8731 17.4998 3.33333V8.33333C17.4998 8.79358 17.1268 9.16667 16.6665 9.16667C16.2063 9.16667 15.8332 8.79358 15.8332 8.33333V5.34517L9.75575 11.4226C9.43034 11.748 8.90267 11.748 8.57725 11.4226C8.25181 11.0972 8.25181 10.5695 8.57725 10.2441L14.6547 4.16667H11.6665ZM4.1665 5.83333C3.70627 5.83333 3.33317 6.20643 3.33317 6.66667V15.8333C3.33317 16.2936 3.70627 16.6667 4.1665 16.6667H13.3332C13.7934 16.6667 14.1665 16.2936 14.1665 15.8333V12.0312C14.1665 11.571 14.5396 11.1979 14.9998 11.1979C15.4601 11.1979 15.8332 11.571 15.8332 12.0312V15.8333C15.8332 17.2141 14.7139 18.3333 13.3332 18.3333H4.1665C2.7858 18.3333 1.6665 17.2141 1.6665 15.8333V6.66667C1.6665 5.28596 2.7858 4.16667 4.1665 4.16667H7.96859C8.42884 4.16667 8.80192 4.53977 8.80192 5C8.80192 5.46023 8.42884 5.83333 7.96859 5.83333H4.1665Z" fill="#BDBDBD"/>
</svg>
