<svg width="23" height="23" viewBox="0 0 23 23" fill="none" xmlns="http://www.w3.org/2000/svg">
<g clip-path="url(#clip0_470_16)">
<path d="M21.4933 21.8277L16.5393 20.3536L12.8027 22.5868L10.1973 22.5851L6.45905 20.3519L1.50668 21.8277L0 16.7437L1.50668 11.099L0 6.33025L1.50668 0.414062L9.24323 5.03649H13.7551L21.4933 0.414062L23 6.327L21.4933 11.099L23 16.7421L21.4933 21.8294V21.8277Z" fill="#FF5C16"/>
<path d="M1.50586 0.414062L9.24404 5.03974L8.93523 8.21563L1.50911 0.414062H1.50586ZM6.45823 16.7453L9.86329 19.3377L6.45823 20.3519V16.7437V16.7453ZM9.59023 12.4577L8.93848 8.21563L4.74839 11.1006H4.74514L4.75814 14.0701L6.4566 12.4577H9.59186H9.59023ZM21.4941 0.414062L13.7576 5.03974L14.0599 8.21563L21.4909 0.414062H21.4941ZM16.5418 16.7453L13.1383 19.3377L16.5418 20.3519V16.7437V16.7453ZM18.2532 11.1006L14.0631 8.21563L13.4081 12.4577H16.5401L18.2402 14.0668L18.2516 11.099L18.2532 11.1006Z" fill="#FF5C16"/>
<path d="M6.45742 20.3509L1.50668 21.8267L0 16.7443H6.45742V20.3525V20.3509ZM9.59268 12.4567L10.5386 18.5858L9.22698 15.1775L4.75896 14.069L6.45905 12.4567H9.58943H9.59268ZM16.5426 20.3542L21.4949 21.8283L23.0016 16.7459H16.5426V20.3542ZM13.4089 12.4551L12.463 18.5842L13.773 15.1759L18.2427 14.0674L16.541 12.4551H13.4089Z" fill="#E34807"/>
<path d="M0 16.7424L1.50668 11.0976H4.74595L4.75733 14.0671L9.22698 15.1756L10.537 18.5839L9.86248 19.3348L6.45905 16.7408H0V16.7424ZM22.9984 16.7424L21.4933 11.0976H18.254L18.2427 14.0671L13.773 15.1756L12.463 18.5839L13.1375 19.3348L16.541 16.7408H23L22.9984 16.7424ZM13.7568 5.03516H9.24486L8.93767 8.21104L10.537 18.5806H12.463L14.064 8.21104L13.7551 5.03516H13.7568Z" fill="#FF8D5D"/>
<path d="M1.50668 0.414062L0 6.327L1.50668 11.099H4.74595L8.93605 8.21563L1.50668 0.414062ZM8.65487 13.6881H7.1872L6.38753 14.4699L9.22698 15.1737L8.65487 13.6865V13.6881ZM21.4933 0.414062L23 6.327L21.4933 11.099H18.254L14.064 8.21563L21.4933 0.414062ZM14.3468 13.6881H15.8161L16.6157 14.4715L13.773 15.1769L14.3468 13.6865V13.6881ZM12.8027 20.5632L13.1375 19.3377L12.463 18.5868H10.5354L9.86248 19.3377L10.1957 20.5632" fill="#661800"/>
<path d="M12.8027 20.5625V22.586H10.1973V20.5625H12.801H12.8027Z" fill="#C0C4CD"/>
<path d="M6.45898 20.3499L10.1972 22.5863V20.5612L9.86404 19.3357L6.45898 20.3499ZM16.5409 20.3499L12.8026 22.5863V20.5612L13.1375 19.3357L16.5409 20.3499Z" fill="#E7EBF6"/>
</g>
<defs>
<clipPath id="clip0_470_16">
<rect width="23" height="23" fill="white"/>
</clipPath>
</defs>
</svg>
