<svg xmlns="http://www.w3.org/2000/svg" width="30" height="30" viewBox="0 0 30 30" fill="none">
  <path fill-rule="evenodd" clip-rule="evenodd" d="M11.3971 25.7445C11.6838 26.282 11.971 26.7663 12.2455 27.1955C9.32908 26.5397 6.79843 24.8645 5.0473 22.5638C6.20302 21.913 7.68325 21.2383 9.46277 20.7447C9.96853 22.7283 10.6821 24.4038 11.3971 25.7445ZM13.603 24.568C12.9818 23.4035 12.3593 21.9492 11.9108 20.226C12.8763 20.0827 13.907 20 15.0002 20C16.0932 20 17.1238 20.0827 18.0892 20.2258C17.6407 21.9492 17.0182 23.4035 16.397 24.568C15.899 25.5018 15.4028 26.2473 15 26.7928C14.5972 26.2473 14.101 25.5018 13.603 24.568ZM11.25 15C11.25 15.9735 11.3155 16.8975 11.431 17.7698C12.5448 17.599 13.7357 17.5 15.0002 17.5C16.2645 17.5 17.4553 17.5988 18.569 17.7698C18.6845 16.8973 18.75 15.9735 18.75 15C18.75 14.0265 18.6845 13.1027 18.569 12.2302C17.4553 12.401 16.2645 12.5 15.0002 12.5C13.7357 12.5 12.5448 12.401 11.431 12.2302C11.3155 13.1025 11.25 14.0265 11.25 15ZM8.97813 11.7147C8.83295 12.7463 8.75 13.8423 8.75 15C8.75 16.1577 8.83295 17.2537 8.97813 18.2853C6.85563 18.8552 5.09803 19.6587 3.73873 20.4318C2.94497 18.7893 2.5 16.9467 2.5 15C2.5 13.0533 2.94497 11.2107 3.73872 9.56813C5.09787 10.3412 6.8555 11.1448 8.97813 11.7147ZM11.9108 9.77408C12.8763 9.91737 13.907 10 15.0002 10C16.0932 10 17.1238 9.91738 18.0892 9.77412C17.6407 8.05092 17.0182 6.59655 16.397 5.432C15.899 4.49823 15.4028 3.7526 15 3.2072C14.5972 3.7526 14.101 4.49823 13.603 5.43197C12.9818 6.59652 12.3593 8.05088 11.9108 9.77408ZM21.0218 11.7148C21.167 12.7465 21.25 13.8425 21.25 15C21.25 16.1577 21.167 17.2535 21.0218 18.2852C23.1443 18.8552 24.902 19.6587 26.2613 20.4318C27.055 18.7892 27.5 16.9465 27.5 15C27.5 13.0535 27.055 11.2108 26.2613 9.56822C24.9022 10.3413 23.1445 11.1448 21.0218 11.7148ZM24.9527 7.4363C23.7968 8.08718 22.3167 8.76175 20.5373 9.25547C20.0315 7.27173 19.318 5.59615 18.603 4.25553C18.3162 3.71795 18.029 3.23375 17.7545 2.8045C20.671 3.46038 23.2017 5.1356 24.9527 7.4363ZM9.46275 9.25542C7.68335 8.76168 6.20317 8.08712 5.04732 7.43622C6.79843 5.13557 9.32908 3.46038 12.2453 2.8045C11.971 3.23375 11.6838 3.71793 11.397 4.2555C10.6821 5.59612 9.96853 7.27168 9.46275 9.25542ZM20.5373 20.7445C20.0315 22.7283 19.318 24.4038 18.603 25.7445C18.3162 26.282 18.029 26.7663 17.7545 27.1955C20.671 26.5397 23.2017 24.8643 24.9528 22.5637C23.797 21.9128 22.3168 21.2383 20.5373 20.7445ZM15 30C23.2843 30 30 23.2843 30 15C30 6.71573 23.2843 0 15 0C6.71573 0 0 6.71573 0 15C0 23.2843 6.71573 30 15 30Z" fill="#212121"/>
</svg>