<svg width="20" height="20" viewBox="0 0 20 20" fill="none" xmlns="http://www.w3.org/2000/svg">
<path fill-rule="evenodd" clip-rule="evenodd" d="M3.33333 4.16602C2.8731 4.16602 2.5 4.53912 2.5 4.99935C2.5 5.45958 2.8731 5.83268 3.33333 5.83268H16.6667C17.1269 5.83268 17.5 5.45958 17.5 4.99935C17.5 4.53912 17.1269 4.16602 16.6667 4.16602H3.33333ZM2.5 9.99935C2.5 9.5391 2.8731 9.16602 3.33333 9.16602H16.6667C17.1269 9.16602 17.5 9.5391 17.5 9.99935C17.5 10.4596 17.1269 10.8327 16.6667 10.8327H3.33333C2.8731 10.8327 2.5 10.4596 2.5 9.99935ZM2.5 14.9993C2.5 14.5391 2.8731 14.166 3.33333 14.166H16.6667C17.1269 14.166 17.5 14.5391 17.5 14.9993C17.5 15.4596 17.1269 15.8327 16.6667 15.8327H3.33333C2.8731 15.8327 2.5 15.4596 2.5 14.9993Z" fill="white"/>
</svg>
