<svg width="17" height="17" viewBox="0 0 17 17" fill="none" xmlns="http://www.w3.org/2000/svg">
<path fill-rule="evenodd" clip-rule="evenodd" d="M6.327 1.00023C6.12407 1.17317 6.02259 1.25965 5.91422 1.33229C5.6658 1.49879 5.38681 1.61434 5.09342 1.67227C4.96543 1.69754 4.83253 1.70814 4.56674 1.72935C3.89892 1.78265 3.565 1.80929 3.28643 1.90769C2.64209 2.13528 2.13528 2.64209 1.90769 3.28643C1.80929 3.565 1.78265 3.89892 1.72935 4.56674C1.70814 4.83253 1.69754 4.96543 1.67227 5.09342C1.61434 5.38681 1.49879 5.6658 1.33229 5.91422C1.25965 6.02259 1.17318 6.12406 1.00023 6.327C0.565694 6.83692 0.348419 7.09184 0.221019 7.35842C-0.0736729 7.975 -0.0736729 8.69167 0.221019 9.30825C0.348427 9.57484 0.565694 9.82975 1.00023 10.3397C1.17315 10.5426 1.25965 10.6441 1.33229 10.7524C1.49879 11.0008 1.61434 11.2798 1.67227 11.5733C1.69754 11.7013 1.70814 11.8342 1.72935 12.0999C1.78265 12.7678 1.80929 13.1017 1.90769 13.3803C2.13528 14.0246 2.64209 14.5314 3.28643 14.759C3.565 14.8573 3.89892 14.884 4.56674 14.9373C4.83253 14.9585 4.96543 14.9692 5.09342 14.9944C5.38681 15.0523 5.6658 15.1679 5.91422 15.3344C6.02259 15.407 6.12406 15.4935 6.327 15.6664C6.83692 16.101 7.09184 16.3183 7.35842 16.4457C7.975 16.7403 8.69167 16.7403 9.30825 16.4457C9.57484 16.3183 9.82975 16.101 10.3397 15.6664C10.5426 15.4935 10.6441 15.407 10.7524 15.3344C11.0008 15.1679 11.2798 15.0523 11.5733 14.9944C11.7013 14.9692 11.8342 14.9585 12.0999 14.9373C12.7678 14.884 13.1017 14.8573 13.3803 14.759C14.0246 14.5314 14.5314 14.0246 14.759 13.3803C14.8573 13.1017 14.884 12.7678 14.9373 12.0999C14.9585 11.8342 14.9692 11.7013 14.9944 11.5733C15.0523 11.2798 15.1679 11.0008 15.3344 10.7524C15.407 10.6441 15.4935 10.5426 15.6664 10.3397C16.101 9.82975 16.3183 9.57484 16.4457 9.30825C16.7403 8.69167 16.7403 7.975 16.4457 7.35842C16.3183 7.09184 16.101 6.83692 15.6664 6.327C15.4935 6.12406 15.407 6.02259 15.3344 5.91422C15.1679 5.6658 15.0523 5.38681 14.9944 5.09342C14.9692 4.96543 14.9585 4.83253 14.9373 4.56674C14.884 3.89892 14.8573 3.565 14.759 3.28643C14.5314 2.64209 14.0246 2.13528 13.3803 1.90769C13.1017 1.80929 12.7678 1.78265 12.0999 1.72935C11.8342 1.70814 11.7013 1.69754 11.5733 1.67227C11.2798 1.61434 11.0008 1.49879 10.7524 1.33229C10.6441 1.25965 10.5426 1.17318 10.3397 1.00023C9.82975 0.565694 9.57484 0.348427 9.30825 0.221019C8.69167 -0.0736729 7.975 -0.0736729 7.35842 0.221019C7.09184 0.348419 6.83692 0.565694 6.327 1.00023ZM11.9779 6.55262C12.2428 6.28775 12.2428 5.85834 11.9779 5.59347C11.7131 5.32861 11.2836 5.32861 11.0188 5.59347L6.97692 9.63533L5.64789 8.30634C5.38303 8.0415 4.9536 8.0415 4.68874 8.30634C4.42389 8.57117 4.42389 9.00059 4.68874 9.2655L6.49732 11.0741C6.76217 11.3389 7.19159 11.3389 7.4565 11.0741L11.9779 6.55262Z" fill="#F08409"/>
</svg>
