<svg width="20" height="20" viewBox="0 0 20 20" fill="none" xmlns="http://www.w3.org/2000/svg">
<path fill-rule="evenodd" clip-rule="evenodd" d="M17.5859 6.66896C17.5386 6.66598 17.4872 6.666 17.434 6.66602L17.4206 6.66603H15.3302C13.6071 6.66603 12.1328 8.02233 12.1328 9.79102C12.1328 11.5597 13.6071 12.916 15.3302 12.916H17.4206H17.434C17.4872 12.916 17.5386 12.9161 17.5859 12.9131C18.2858 12.8689 18.9047 12.3212 18.9568 11.5562C18.9602 11.506 18.9601 11.4519 18.9601 11.4019V11.3883V8.1938V8.1802C18.9601 8.13008 18.9602 8.07601 18.9568 8.02585C18.9047 7.26086 18.2858 6.71316 17.5859 6.66896ZM15.1449 10.6244C15.5885 10.6244 15.9481 10.2513 15.9481 9.79102C15.9481 9.33077 15.5885 8.95768 15.1449 8.95768C14.7013 8.95768 14.3416 9.33077 14.3416 9.79102C14.3416 10.2513 14.7013 10.6244 15.1449 10.6244Z" fill="white"/>
<path fill-rule="evenodd" clip-rule="evenodd" d="M17.4329 14.1667C17.5571 14.1634 17.6512 14.2785 17.6175 14.3982C17.4502 14.9918 17.1846 15.4979 16.7586 15.924C16.135 16.5476 15.3441 16.8243 14.3671 16.9558C13.4178 17.0833 12.2048 17.0833 10.6733 17.0833H8.91264C7.38116 17.0833 6.16813 17.0833 5.21879 16.9558C4.24177 16.8243 3.45098 16.5476 2.82734 15.924C2.2037 15.3003 1.92694 14.5095 1.79559 13.5325C1.66794 12.5832 1.66795 11.3702 1.66797 9.83867V9.74467C1.66795 8.21319 1.66794 7.00016 1.79559 6.05082C1.92694 5.0738 2.2037 4.28301 2.82734 3.65937C3.45098 3.03573 4.24177 2.75897 5.21879 2.62762C6.16813 2.49998 7.38115 2.49998 8.91264 2.5H10.6733C12.2048 2.49998 13.4178 2.49998 14.3671 2.62762C15.3441 2.75897 16.135 3.03573 16.7586 3.65937C17.1846 4.08543 17.4501 4.59145 17.6175 5.18515C17.6512 5.30479 17.5571 5.41989 17.4329 5.41667L15.3296 5.41668C12.9658 5.41668 10.8822 7.28409 10.8822 9.79167C10.8822 12.2992 12.9658 14.1667 15.3296 14.1667H17.4329ZM4.79297 5.83333C4.44779 5.83333 4.16797 6.11316 4.16797 6.45833C4.16797 6.80351 4.44779 7.08333 4.79297 7.08333H8.1263C8.47147 7.08333 8.7513 6.80351 8.7513 6.45833C8.7513 6.11316 8.47147 5.83333 8.1263 5.83333H4.79297Z" fill="white"/>
</svg>
