<svg width="110" height="110" viewBox="0 0 110 110" fill="none" xmlns="http://www.w3.org/2000/svg">
<g clip-path="url(#clip0_297_13901)">
<mask id="mask0_297_13901" style="mask-type:luminance" maskUnits="userSpaceOnUse" x="0" y="0" width="110" height="110">
<path d="M110 0H0V110H110V0Z" fill="white"/>
</mask>
<g mask="url(#mask0_297_13901)">
<mask id="mask1_297_13901" style="mask-type:luminance" maskUnits="userSpaceOnUse" x="-42" y="-41" width="194" height="194">
<path d="M-41.3785 -40.3506H151.379V152.406H-41.3785V-40.3506Z" fill="white"/>
</mask>
<g mask="url(#mask1_297_13901)">
<path d="M55 40.2217C63.3688 40.2217 70.1636 47.0165 70.1636 55.3852C70.1636 63.754 63.3688 70.5488 55 70.5488C46.6312 70.5488 39.8365 63.754 39.8365 55.3852C39.8365 47.0165 46.6312 40.2217 55 40.2217Z" fill="#F08409"/>
<path d="M59.7221 45.647C64.59 45.647 68.5423 49.9443 68.5423 55.237C68.5423 60.5297 64.59 64.827 59.7221 64.827C54.8543 64.827 50.9019 60.5297 50.9019 55.237C50.9019 49.9443 54.8543 45.647 59.7221 45.647Z" fill="#F08409"/>
<path d="M97.3896 44.918C103.199 44.918 107.915 49.6344 107.915 55.4435C107.915 61.2525 103.199 65.969 97.3896 65.969C91.5806 65.969 86.8641 61.2525 86.8641 55.4435C86.8641 49.6344 91.5806 44.918 97.3896 44.918Z" fill="#F08409"/>
<path d="M97.1569 48.7817C100.85 48.7817 103.849 51.7805 103.849 55.4739C103.849 59.1673 100.85 62.166 97.1569 62.166C93.4635 62.166 90.4648 59.1673 90.4648 55.4739C90.4648 51.7805 93.4635 48.7817 97.1569 48.7817Z" fill="#F08409"/>
</g>
</g>
</g>
<defs>
<clipPath id="clip0_297_13901">
<rect width="110" height="110" fill="white"/>
</clipPath>
</defs>
</svg>
